<svg width="300" height="209" xmlns="http://www.w3.org/2000/svg">

 <g>
  <title>Layer 1</title>
  <text font-weight="bold" xml:space="preserve" text-anchor="start" font-family="'Crimson Pro'" font-size="32" id="svg_1" y="111" x="98.09375" stroke-width="0" stroke="#000" fill="#353434">FAKECINE</text>
  <rect stroke="#000" id="svg_4" height="28" width="33" y="88" x="60" stroke-width="0" fill="#444343"/>
  <rect id="svg_6" height="11" width="22" y="97" x="66" stroke-width="0" stroke="#000" fill="#000000"/>
  <path d="m65,101c0,0 0.07613,0.38269 1,0c1.30656,-0.5412 4.01291,-1.83981 5,-2c3.12144,-0.50655 3,-1 3,-1c1,0 1.29289,-0.70711 2,0c0.70711,0.70711 1,1 1,2c0,0 0,1 0,1c0,0 -0.29289,0.29289 -1,1c-0.70711,0.70711 -1,0 -1,-1c0,0 -0.38269,-1.07613 0,-2c0.5412,-1.30656 1,-2 2,-2l0,0l0,0" id="svg_8" stroke-width="0" stroke="#000" fill="none"/>
  <polyline stroke-linecap="round" id="svg_9" points="117,298 117,298 " stroke-width="0" stroke="#000" fill="none"/>
  <polyline stroke-linecap="round" id="svg_13" points="448,223 448,222 " stroke-width="0" stroke="#000" fill="none"/>
  <ellipse stroke="#000" ry="108.5" rx="28" id="svg_18" cy="126.5" cx="95" stroke-width="0" fill="none"/>
  <rect stroke="#000" id="svg_23" height="16" width="22" y="95" x="67" stroke-width="0" fill="#ffffff"/>
 </g>
</svg>